<?xml version="1.0" encoding="UTF-8"?>
<svg id="Layer_1" data-name="Layer 1" xmlns="http://www.w3.org/2000/svg" viewBox="0 0 136.94 53.38">
  <defs>
    <style>
      .cls-1 {
        fill: #285160;
      }
    </style>
  </defs>
  <path class="cls-1" d="M14.84,48.97c5.4,0,9.21-4.03,9.21-9.43s-3.88-9.51-9.36-9.51c-5.86,0-10.27,3.96-10.27,10.04,0,5.63,5.33,8.9,10.42,8.9M5.4,15.65c3.5-1.45,7.3-2.28,11.11-2.28,5.94,0,11.95,3.12,11.95,9.66v29.44l-4.41.91v-4.79h-.15c-1.52,2.82-4.87,4.79-9.36,4.79-7.84,0-14.53-5.02-14.53-13.31s5.55-14.45,14-14.45c3.8,0,7.46,2.13,10.04,4.41v-6.39c0-3.2-3.88-5.86-8.98-5.86-3.65,0-7.76,1.9-11.11,3.04l1.45-5.17Z"/>
  <path class="cls-1" d="M33.87,44.79c2.89,2.74,5.48,4.18,9.59,4.18,4.49,0,8.22-2.36,8.22-7.08,0-9.59-20.16-4.03-20.16-17.42,0-7,6.09-11.11,12.63-11.11,4.64,0,7.76,1.9,11.41,4.49l-2.51,3.5c-2.66-1.98-5.63-3.58-9.13-3.58-4.34,0-7.99,2.13-7.99,6.47,0,9.59,20.16,3.27,20.16,17.42,0,7.99-6.16,11.72-13.62,11.72-4.72,0-8.98-2.28-11.94-5.78l3.35-2.81"/>
  <path class="cls-1" d="M59.66,44.79c2.89,2.74,5.48,4.18,9.59,4.18,4.49,0,8.22-2.36,8.22-7.08,0-9.59-20.16-4.03-20.16-17.42,0-7,6.09-11.11,12.63-11.11,4.64,0,7.76,1.9,11.41,4.49l-2.51,3.5c-2.66-1.98-5.63-3.58-9.13-3.58-4.34,0-7.99,2.13-7.99,6.47,0,9.59,20.16,3.27,20.16,17.42,0,7.99-6.16,11.72-13.62,11.72-4.72,0-8.98-2.28-11.94-5.78l3.35-2.81"/>
  <path class="cls-1" d="M90.12,4.58l-4.23,3.17-2.63-4.58,4.23-3.17,2.63,4.58ZM84.49,53.38V14.28l4.41-.91v39.11l-4.41.91Z"/>
  <path class="cls-1" d="M94.99,44.79c2.89,2.74,5.48,4.18,9.59,4.18,4.49,0,8.22-2.36,8.22-7.08,0-9.59-20.16-4.03-20.16-17.42,0-7,6.09-11.11,12.63-11.11,4.64,0,7.76,1.9,11.41,4.49l-2.51,3.5c-2.66-1.98-5.63-3.58-9.13-3.58-4.34,0-7.99,2.13-7.99,6.47,0,9.59,20.16,3.27,20.16,17.42,0,7.99-6.16,11.72-13.62,11.72-4.72,0-8.98-2.28-11.94-5.78l3.35-2.81"/>
  <path class="cls-1" d="M122.1,4.92l4.41-2.43v10.33h10.35v4.41h-10.35v25.05c0,4.64,1.98,6.39,6.85,6.39,1.22,0,2.36,0,3.58-.15v4.11c-1.22.23-2.59.46-3.96.46-7,0-10.88-4.03-10.88-10.88v-24.97h-4.12l3.02-4.41h1.11v-7.89"/>
</svg>