<?xml version="1.0" encoding="UTF-8"?>
<svg id="Layer_1" data-name="Layer 1" xmlns="http://www.w3.org/2000/svg" viewBox="0 0 136.94 66.53">
  <defs>
    <style>
      .cls-1 {
        fill: #285160;
      }
    </style>
  </defs>
  <path class="cls-1" d="M5.18,61.33c-.31-.22-.61-.29-.99-.29-1.2,0-2.14,1.12-2.14,2.31s.86,2.38,2.1,2.38c.4,0,.8-.15,1.14-.37l-.15.93c-.32.11-.66.22-1.01.22-1.66,0-2.92-1.47-2.92-3.14,0-1.52,1.32-3.13,2.79-3.13.33,0,.66.06.98.15l.18.93"/>
  <path class="cls-1" d="M9.78,65.71c1.23,0,2.24-1.1,2.24-2.35s-1.01-2.35-2.24-2.35-2.24,1.1-2.24,2.35,1.01,2.35,2.24,2.35M9.78,60.22c1.69,0,3.08,1.37,3.08,3.13s-1.38,3.14-3.08,3.14-3.08-1.37-3.08-3.14,1.39-3.13,3.08-3.13"/>
  <polygon class="cls-1" points="14.15 66.39 15.34 60.26 15.36 60.26 17.39 64.82 19.38 60.26 19.4 60.26 20.6 66.39 19.79 66.49 19.08 62.7 19.06 62.7 17.39 66.46 17.38 66.46 15.67 62.7 15.65 62.7 14.96 66.49 14.15 66.39"/>
  <polygon class="cls-1" points="22.22 66.39 23.41 60.26 23.42 60.26 25.45 64.82 27.45 60.26 27.47 60.26 28.66 66.39 27.85 66.49 27.14 62.7 27.13 62.7 25.46 66.46 25.44 66.46 23.73 62.7 23.71 62.7 23.02 66.49 22.22 66.39"/>
  <path class="cls-1" d="M34.87,60.26v3.82c0,1.84-.58,2.45-2.06,2.45-1.62,0-2.09-.73-2.09-2.45v-3.68l.84-.14v4.27c0,.77.43,1.21,1.18,1.21s1.29-.33,1.29-1.21v-4.13l.84-.14"/>
  <polygon class="cls-1" points="37.36 66.49 37.36 60.26 37.38 60.26 41.14 64.45 41.14 60.54 41.98 60.4 41.98 66.53 41.96 66.53 38.2 62.34 38.2 66.39 37.36 66.49"/>
  <polygon class="cls-1" points="44.46 66.46 44.46 60.4 45.3 60.26 45.3 66.39 44.46 66.46"/>
  <polygon class="cls-1" points="47.2 61.19 47.46 60.4 50.92 60.4 50.92 61.19 49.56 61.19 49.56 66.39 48.72 66.49 48.72 61.19 47.2 61.19"/>
  <polygon class="cls-1" points="56.87 60.51 54.23 66.53 53.41 66.34 54.44 64.08 52.31 60.5 53.13 60.26 54.83 63.18 56.06 60.26 56.87 60.51"/>
  <path class="cls-1" d="M64.89,65.6h.62c.99,0,2.12-.84,2.12-2.21s-1.13-2.21-2.12-2.21h-.62v4.41M64.05,60.4h1.46c1.78,0,2.96,1.45,2.96,2.99s-1.18,2.99-2.96,2.99h-1.46v-5.99Z"/>
  <polygon class="cls-1" points="70.17 66.39 70.17 60.4 73.3 60.4 73.48 61.19 71.01 61.19 71.01 62.88 72.98 62.88 72.98 63.66 71.01 63.66 71.01 65.6 73.66 65.6 73.43 66.39 70.17 66.39"/>
  <path class="cls-1" d="M75.98,65.03c.24.38.65.71,1.12.71.61,0,1.07-.3,1.07-1.05,0-1.39-2.68-.63-2.68-2.73,0-1.06.74-1.7,1.8-1.7.65,0,1.27.35,1.65.87l-.56.58c-.32-.34-.64-.66-1.13-.66-.54,0-.92.35-.92.92,0,1.23,2.68.67,2.68,2.74,0,1.06-.8,1.82-1.82,1.82-.8,0-1.29-.39-1.82-.97l.62-.52"/>
  <polygon class="cls-1" points="81.28 66.46 81.28 60.4 82.12 60.26 82.12 66.39 81.28 66.46"/>
  <path class="cls-1" d="M89.57,65.65c-.38.47-1.28.87-2.31.87-1.56,0-2.95-1.45-2.95-3.05,0-1.75,1.3-3.21,3.04-3.21.8,0,1.62.28,2.14.82l-.5.58c-.45-.34-.91-.62-1.61-.62-1.19,0-2.24,1.03-2.24,2.43,0,1.01.88,2.27,2.09,2.27.52,0,1.12-.14,1.5-.53v-1.42h-1.75l.29-.78h2.3v2.65"/>
  <polygon class="cls-1" points="91.9 66.49 91.9 60.26 91.92 60.26 95.68 64.45 95.68 60.54 96.52 60.4 96.52 66.53 96.5 66.53 92.74 62.34 92.74 66.39 91.9 66.49"/>
  <path class="cls-1" d="M107.3,61.33c-.31-.22-.61-.29-.98-.29-1.2,0-2.14,1.12-2.14,2.31s.86,2.38,2.1,2.38c.4,0,.8-.15,1.14-.37l-.15.93c-.33.11-.66.22-1.01.22-1.66,0-2.92-1.47-2.92-3.14,0-1.52,1.32-3.13,2.79-3.13.33,0,.66.06.98.15l.18.93"/>
  <polygon class="cls-1" points="109.31 66.39 109.31 60.4 112.44 60.4 112.62 61.19 110.15 61.19 110.15 62.88 112.12 62.88 112.12 63.66 110.15 63.66 110.15 65.6 112.81 65.6 112.57 66.39 109.31 66.39"/>
  <polygon class="cls-1" points="114.97 66.49 114.97 60.26 114.99 60.26 118.75 64.45 118.75 60.54 119.59 60.4 119.59 66.53 119.57 66.53 115.81 62.34 115.81 66.39 114.97 66.49"/>
  <polygon class="cls-1" points="121.5 61.19 121.76 60.4 125.23 60.4 125.23 61.19 123.86 61.19 123.86 66.39 123.02 66.49 123.02 61.19 121.5 61.19"/>
  <polygon class="cls-1" points="127.32 66.39 127.32 60.4 130.45 60.4 130.63 61.19 128.16 61.19 128.16 62.88 130.13 62.88 130.13 63.66 128.16 63.66 128.16 65.6 130.82 65.6 130.58 66.39 127.32 66.39"/>
  <path class="cls-1" d="M133.76,63.29h.6c.57,0,1.09-.42,1.09-1.07,0-.7-.44-1.03-1.09-1.03h-.6v2.1M132.92,66.49v-6.09h1.45c.87,0,1.92.45,1.92,1.81,0,.89-.5,1.38-1.3,1.56l1.77,2.51-.94.24-2.04-3.05h-.02v2.91l-.84.1Z"/>
  <path class="cls-1" d="M14.84,48.97c5.4,0,9.21-4.03,9.21-9.43s-3.88-9.51-9.36-9.51c-5.86,0-10.27,3.96-10.27,10.04,0,5.63,5.33,8.9,10.42,8.9M5.4,15.65c3.5-1.45,7.3-2.28,11.11-2.28,5.94,0,11.95,3.12,11.95,9.66v29.44l-4.41.91v-4.79h-.15c-1.52,2.82-4.87,4.79-9.36,4.79-7.84,0-14.53-5.02-14.53-13.31s5.55-14.45,14-14.45c3.8,0,7.46,2.13,10.04,4.41v-6.39c0-3.2-3.88-5.86-8.98-5.86-3.65,0-7.76,1.9-11.11,3.04l1.45-5.17Z"/>
  <path class="cls-1" d="M33.87,44.79c2.89,2.74,5.48,4.18,9.59,4.18,4.49,0,8.22-2.36,8.22-7.08,0-9.59-20.16-4.03-20.16-17.42,0-7,6.09-11.11,12.63-11.11,4.64,0,7.76,1.9,11.41,4.49l-2.51,3.5c-2.66-1.98-5.63-3.58-9.13-3.58-4.34,0-7.99,2.13-7.99,6.47,0,9.59,20.16,3.27,20.16,17.42,0,7.99-6.16,11.72-13.62,11.72-4.72,0-8.98-2.28-11.94-5.78l3.35-2.81"/>
  <path class="cls-1" d="M59.66,44.79c2.89,2.74,5.48,4.18,9.59,4.18,4.49,0,8.22-2.36,8.22-7.08,0-9.59-20.16-4.03-20.16-17.42,0-7,6.09-11.11,12.63-11.11,4.64,0,7.76,1.9,11.41,4.49l-2.51,3.5c-2.66-1.98-5.63-3.58-9.13-3.58-4.34,0-7.99,2.13-7.99,6.47,0,9.59,20.16,3.27,20.16,17.42,0,7.99-6.16,11.72-13.62,11.72-4.72,0-8.98-2.28-11.94-5.78l3.35-2.81"/>
  <path class="cls-1" d="M90.12,4.58l-4.23,3.17-2.63-4.58,4.23-3.17,2.63,4.58ZM84.49,53.38V14.28l4.41-.91v39.11l-4.41.91Z"/>
  <path class="cls-1" d="M94.99,44.79c2.89,2.74,5.48,4.18,9.59,4.18,4.49,0,8.22-2.36,8.22-7.08,0-9.59-20.16-4.03-20.16-17.42,0-7,6.09-11.11,12.63-11.11,4.64,0,7.76,1.9,11.41,4.49l-2.51,3.5c-2.66-1.98-5.63-3.58-9.13-3.58-4.34,0-7.99,2.13-7.99,6.47,0,9.59,20.16,3.27,20.16,17.42,0,7.99-6.16,11.72-13.62,11.72-4.72,0-8.98-2.28-11.94-5.78l3.35-2.81"/>
  <path class="cls-1" d="M122.1,4.92l4.41-2.43v10.33h10.35v4.41h-10.35v25.05c0,4.64,1.98,6.39,6.85,6.39,1.22,0,2.36,0,3.58-.15v4.11c-1.22.23-2.59.46-3.96.46-7,0-10.88-4.03-10.88-10.88v-24.97h-4.12l3.02-4.41h1.11v-7.89"/>
</svg>